<svg width="30" height="29" viewBox="0 0 30 29" fill="none" xmlns="http://www.w3.org/2000/svg">
<path d="M15.0083 26.5834C13.2847 26.5834 11.6649 26.2662 10.1489 25.6318C8.63298 24.9974 7.30729 24.1314 6.17188 23.0339C5.03646 21.9363 4.14062 20.6541 3.48438 19.1871C2.82812 17.7202 2.5 16.1528 2.5 14.4849C2.5 12.817 2.82812 11.2496 3.48438 9.78272C4.14062 8.31578 5.03646 7.03856 6.17188 5.95106C7.30729 4.86356 8.63376 4.00262 10.1513 3.36825C11.6688 2.73387 13.2902 2.41669 15.0156 2.41669C16.741 2.41669 18.3625 2.73387 19.88 3.36825C21.3975 4.00262 22.7188 4.86356 23.8438 5.95106C24.9688 7.03856 25.8594 8.31738 26.5156 9.78752C27.1719 11.2577 27.5 12.8258 27.5 14.492C27.5 16.1582 27.1719 17.724 26.5156 19.1894C25.8594 20.6548 24.9688 21.9345 23.8438 23.0283C22.7188 24.1222 21.3958 24.9882 19.875 25.6262C18.3542 26.2643 16.7319 26.5834 15.0083 26.5834ZM15.0156 24.7709C17.9635 24.7709 20.4688 23.7689 22.5312 21.7651C24.5938 19.7613 25.625 17.3346 25.625 14.4849C25.625 11.6353 24.5957 9.21356 22.5371 7.21981C20.4785 5.22606 17.9661 4.22919 15 4.22919C12.0625 4.22919 9.55729 5.22417 7.48438 7.21413C5.41146 9.20412 4.375 11.6327 4.375 14.5C4.375 17.3396 5.41146 19.7613 7.48438 21.7651C9.55729 23.7689 12.0677 24.7709 15.0156 24.7709ZM15 22.9584C15.375 22.9584 15.7083 22.8426 16 22.611C16.2917 22.3794 16.4688 22.0924 16.5312 21.75H13.4688C13.5521 22.0924 13.7344 22.3794 14.0156 22.611C14.2969 22.8426 14.625 22.9584 15 22.9584ZM11.25 19.6354H18.75V18.4271H11.25V19.6354ZM11.2812 16.9167H18.7188C19.4896 16.3729 20.1042 15.6832 20.5625 14.8474C21.0208 14.0117 21.25 13.0903 21.25 12.0834C21.25 10.4118 20.6406 8.987 19.4219 7.80887C18.2031 6.63075 16.7292 6.04169 15 6.04169C13.2708 6.04169 11.7969 6.63075 10.5781 7.80887C9.35938 8.987 8.75 10.4118 8.75 12.0834C8.75 13.0903 8.97917 14.0117 9.4375 14.8474C9.89583 15.6832 10.5104 16.3729 11.2812 16.9167ZM11.7188 15.7084C11.1858 15.2091 10.7661 14.6413 10.4597 14.0048C10.1532 13.3683 10 12.7278 10 12.0834C10 10.7484 10.4875 9.60914 11.4624 8.66549C12.4374 7.72184 13.6145 7.25002 14.9937 7.25002C16.3729 7.25002 17.5521 7.72184 18.5312 8.66549C19.5104 9.60914 20 10.7484 20 12.0834C20 12.7278 19.8468 13.3683 19.5403 14.0048C19.2339 14.6413 18.8142 15.2091 18.2812 15.7084H11.7188Z" fill="black"/>
</svg>
