<svg width="30" height="29" viewBox="0 0 30 29" fill="none" xmlns="http://www.w3.org/2000/svg">
<g clip-path="url(#clip0_41_260)">
<path d="M15 25.9792C13.3542 25.9792 11.8125 25.6771 10.375 25.0729C8.9375 24.4687 7.68229 23.6481 6.60938 22.6109C5.53646 21.5738 4.6875 20.3604 4.0625 18.9708C3.4375 17.5812 3.125 16.091 3.125 14.5C3.125 12.909 3.4375 11.4187 4.0625 10.0292C4.6875 8.63958 5.53646 7.42622 6.60938 6.38906C7.68229 5.35191 8.9375 4.53125 10.375 3.92708C11.8125 3.32292 13.3542 3.02083 15 3.02083V0L20 4.83333L15 9.66667V6.64583C12.75 6.64583 10.8333 7.41111 9.25 8.94167C7.66667 10.4722 6.875 12.325 6.875 14.5C6.875 15.8292 7.19271 17.0627 7.82812 18.2005C8.46354 19.3384 9.3125 20.2597 10.375 20.9646C10.7083 20.4007 11.2031 19.9224 11.8594 19.5297C12.5156 19.137 13.2708 18.8903 14.125 18.7896C14.0625 18.3667 13.9792 17.9437 13.875 17.5208C13.7708 17.0979 13.6458 16.7052 13.5 16.3427C13.2708 16.524 13.0208 16.6649 12.75 16.7656C12.4792 16.8663 12.1875 16.9167 11.875 16.9167C11.1875 16.9167 10.599 16.68 10.1094 16.2068C9.61979 15.7335 9.375 15.1646 9.375 14.5V13.2917C9.375 12.9493 9.31771 12.6271 9.20312 12.325C9.08854 12.0229 8.9375 11.741 8.75 11.4792C9.79167 11.459 10.7188 11.5497 11.5312 11.751C12.2396 11.9323 12.8854 12.2293 13.4688 12.6422C14.0521 13.055 14.3542 13.6743 14.375 14.5C14.375 14.6812 14.3594 14.8474 14.3281 14.9984C14.2969 15.1495 14.2396 15.3056 14.1562 15.4667C13.8854 15.2653 13.6146 15.084 13.3438 14.9229C13.0729 14.7618 12.7917 14.6208 12.5 14.5C12.8542 14.7618 13.2604 15.1646 13.7188 15.7083C14.1771 16.2521 14.6042 16.8965 15 17.6417C15.4167 16.6549 15.9375 15.6832 16.5625 14.7266C17.1875 13.77 17.9167 12.8889 18.75 12.0833C18.2708 12.4056 17.8125 12.7479 17.375 13.1104C16.9375 13.4729 16.5104 13.8556 16.0938 14.2583C15.9479 14.0368 15.8333 13.7901 15.75 13.5182C15.6667 13.2464 15.625 12.9694 15.625 12.6875C15.625 11.8417 15.9271 11.1267 16.5312 10.5427C17.1354 9.95868 17.875 9.66667 18.75 9.66667H20C20.4792 9.66667 20.875 9.60625 21.1875 9.48542C21.5 9.36458 21.7604 9.22361 21.9688 9.0625C22.1979 8.88125 22.375 8.67986 22.5 8.45833C22.5833 9.80764 22.5104 11.016 22.2812 12.0833C22.0938 12.9896 21.7396 13.8203 21.2188 14.5755C20.6979 15.3307 19.875 15.7083 18.75 15.7083C18.4375 15.7083 18.1406 15.6681 17.8594 15.5875C17.5781 15.5069 17.3229 15.3962 17.0938 15.2552C16.9479 15.6378 16.7812 16.1464 16.5938 16.7807C16.4062 17.4151 16.2604 18.0948 16.1562 18.8198C16.9479 18.9608 17.6458 19.2226 18.25 19.6052C18.8542 19.9878 19.3125 20.441 19.625 20.9646C20.6875 20.2597 21.5365 19.3434 22.1719 18.2156C22.8073 17.0878 23.125 15.8493 23.125 14.5H26.875C26.875 16.091 26.5625 17.5812 25.9375 18.9708C25.3125 20.3604 24.4635 21.5738 23.3906 22.6109C22.3177 23.6481 21.0625 24.4687 19.625 25.0729C18.1875 25.6771 16.6458 25.9792 15 25.9792Z" fill="black"/>
</g>
<defs>
<clipPath id="clip0_41_260">
<rect width="30" height="29" fill="white"/>
</clipPath>
</defs>
</svg>
